<?xml version="1.0" encoding="UTF-8"?>
<svg xmlns="http://www.w3.org/2000/svg" width="213" height="60" viewBox="0 0 213 60" fill="none">
  <path d="M93.6201 36.8046C92.9948 36.8046 92.6821 36.5199 92.6821 35.9503V23.8669C92.6821 23.2974 92.9948 23.0126 93.6201 23.0126C93.9402 23.0126 94.2529 23.1821 94.5581 23.5211L103.536 34.0584H103.067V23.8669C103.067 23.2974 103.38 23.0126 104.005 23.0126C104.631 23.0126 104.943 23.2974 104.943 23.8669V35.9503C104.943 36.5199 104.631 36.8046 104.005 36.8046C103.67 36.8046 103.358 36.6351 103.067 36.2961L94.0891 25.7588H94.5581V35.9503C94.5581 36.5199 94.2455 36.8046 93.6201 36.8046Z" fill="#111111"></path>
  <path d="M114.119 36.8046C113.806 36.8046 113.572 36.7334 113.415 36.5911C113.259 36.4487 113.181 36.2351 113.181 35.9503V24.7417H108.848C108.535 24.7417 108.301 24.6705 108.145 24.5281C107.988 24.3857 107.91 24.1721 107.91 23.8873C107.91 23.6025 107.988 23.3889 108.145 23.2465C108.301 23.1041 108.535 23.0329 108.848 23.0329H119.39C119.702 23.0329 119.937 23.1041 120.093 23.2465C120.25 23.3889 120.328 23.6025 120.328 23.8873C120.328 24.1721 120.25 24.3857 120.093 24.5281C119.937 24.6705 119.702 24.7417 119.39 24.7417H115.057V35.9503C115.057 36.2215 114.975 36.4317 114.811 36.5809C114.655 36.7301 114.424 36.8046 114.119 36.8046Z" fill="#111111"></path>
  <path d="M133.041 36.8453C132.796 36.9877 132.561 37.0318 132.338 36.9776C132.115 36.9233 131.925 36.7843 131.768 36.5605L128.307 31.3122H125.18V35.9503C125.18 36.5199 124.867 36.8046 124.242 36.8046C123.617 36.8046 123.304 36.5199 123.304 35.9503V23.8669C123.304 23.2974 123.617 23.0126 124.242 23.0126H129.468C130.83 23.0126 131.873 23.3448 132.595 24.0093C133.324 24.6671 133.689 25.6164 133.689 26.8573V27.4675C133.689 28.5457 133.414 29.4068 132.863 30.051C132.312 30.6884 131.515 31.0851 130.473 31.241L133.399 35.6858C133.682 36.1605 133.563 36.547 133.041 36.8453ZM125.18 29.6035H129.468C130.317 29.6035 130.92 29.4407 131.277 29.1153C131.634 28.7898 131.813 28.2405 131.813 27.4675V26.8573C131.813 26.091 131.634 25.5452 131.277 25.2197C130.92 24.8875 130.317 24.7213 129.468 24.7213H125.18V29.6035Z" fill="#111111"></path>
  <path d="M141.729 36.8046C140.024 36.8046 138.763 36.4351 137.944 35.696C137.132 34.9501 136.726 33.8008 136.726 32.248V27.5489C136.726 25.9825 137.136 24.8332 137.955 24.1009C138.774 23.3618 140.032 22.999 141.729 23.0126H144.409C146.122 23.0126 147.383 23.3821 148.195 24.1212C149.006 24.8603 149.412 26.0097 149.412 27.5692V32.248C149.412 33.8008 149.006 34.9501 148.195 35.696C147.383 36.4351 146.122 36.8046 144.409 36.8046H141.729ZM141.729 35.0959H144.409C145.206 35.0959 145.831 35.0111 146.285 34.8416C146.739 34.6653 147.06 34.3703 147.246 33.9567C147.439 33.5431 147.536 32.9735 147.536 32.248V27.5692C147.536 26.8505 147.439 26.2843 147.246 25.8707C147.06 25.457 146.739 25.1621 146.285 24.9858C145.831 24.8095 145.206 24.7213 144.409 24.7213H141.729C140.94 24.7145 140.319 24.7959 139.864 24.9654C139.41 25.1349 139.086 25.4265 138.893 25.8401C138.699 26.2538 138.603 26.8234 138.603 27.5489V32.248C138.603 32.9735 138.696 33.5431 138.882 33.9567C139.075 34.3703 139.399 34.6653 139.853 34.8416C140.307 35.0111 140.933 35.0959 141.729 35.0959Z" fill="#111111"></path>
  <path d="M154.449 36.8046C153.824 36.8046 153.511 36.5199 153.511 35.9503V23.8669C153.511 23.2974 153.824 23.0126 154.449 23.0126H159.832C161.775 23.0126 163.204 23.433 164.12 24.2738C165.043 25.1078 165.504 26.4097 165.504 28.1795V31.6377C165.504 33.4075 165.047 34.7128 164.131 35.5536C163.223 36.3876 161.79 36.8046 159.832 36.8046H154.449ZM155.387 35.0959H159.832C160.785 35.0959 161.537 34.9908 162.087 34.7806C162.646 34.5636 163.04 34.2042 163.271 33.7024C163.509 33.1939 163.628 32.5056 163.628 31.6377V28.1795C163.628 27.3184 163.509 26.6369 163.271 26.1351C163.04 25.6266 162.646 25.2638 162.087 25.0468C161.537 24.8298 160.785 24.7213 159.832 24.7213H155.387V35.0959Z" fill="#111111"></path>
  <path d="M174.498 36.8046C172.794 36.8046 171.532 36.4351 170.713 35.696C169.901 34.9501 169.496 33.8008 169.496 32.248V23.8669C169.496 23.5822 169.574 23.3686 169.73 23.2262C169.886 23.0838 170.121 23.0126 170.434 23.0126C170.746 23.0126 170.981 23.0838 171.137 23.2262C171.293 23.3686 171.372 23.5822 171.372 23.8669V32.248C171.372 32.9735 171.465 33.5431 171.651 33.9567C171.844 34.3703 172.168 34.6653 172.622 34.8416C173.076 35.0111 173.702 35.0959 174.498 35.0959H177.178C177.975 35.0959 178.6 35.0111 179.054 34.8416C179.509 34.6653 179.829 34.3703 180.015 33.9567C180.208 33.5431 180.305 32.9735 180.305 32.248V23.8669C180.305 23.5822 180.383 23.3686 180.54 23.2262C180.696 23.0838 180.931 23.0126 181.243 23.0126C181.556 23.0126 181.79 23.0838 181.947 23.2262C182.103 23.3686 182.181 23.5822 182.181 23.8669V32.248C182.181 33.8008 181.776 34.9501 180.964 35.696C180.153 36.4351 178.891 36.8046 177.178 36.8046H174.498Z" fill="#111111"></path>
  <path d="M191.173 36.8046C189.469 36.8046 188.207 36.4351 187.388 35.696C186.576 34.9501 186.171 33.8008 186.171 32.248V27.5692C186.171 26.0029 186.576 24.8502 187.388 24.1111C188.199 23.3652 189.454 22.999 191.151 23.0126H193.853C195.253 23.0126 196.321 23.277 197.058 23.8059C197.795 24.328 198.223 25.1553 198.343 26.2877C198.387 26.5725 198.328 26.7895 198.164 26.9386C198 27.0878 197.762 27.1624 197.449 27.1624C196.883 27.1624 196.556 26.8776 196.467 26.308C196.392 25.6842 196.154 25.2638 195.752 25.0468C195.357 24.8298 194.724 24.7213 193.853 24.7213H191.151C190.362 24.7145 189.74 24.7959 189.286 24.9654C188.84 25.1349 188.519 25.4299 188.326 25.8503C188.14 26.2639 188.047 26.8369 188.047 27.5692V32.248C188.047 32.9735 188.14 33.5431 188.326 33.9567C188.519 34.3703 188.843 34.6653 189.297 34.8416C189.751 35.0111 190.377 35.0959 191.173 35.0959H193.853C194.724 35.0959 195.357 34.9874 195.752 34.7704C196.154 34.5466 196.392 34.1262 196.467 33.5092C196.556 32.9396 196.883 32.6548 197.449 32.6548C197.762 32.6548 198 32.7294 198.164 32.8786C198.328 33.0278 198.387 33.2447 198.343 33.5295C198.223 34.6687 197.795 35.4993 197.058 36.0215C196.321 36.5436 195.253 36.8046 193.853 36.8046H191.173Z" fill="#111111"></path>
  <path d="M206.791 36.8046C206.479 36.8046 206.244 36.7334 206.088 36.5911C205.931 36.4487 205.853 36.2351 205.853 35.9503V24.7417H201.52C201.208 24.7417 200.973 24.6705 200.817 24.5281C200.661 24.3857 200.582 24.1721 200.582 23.8873C200.582 23.6025 200.661 23.3889 200.817 23.2465C200.973 23.1041 201.208 23.0329 201.52 23.0329H212.062C212.375 23.0329 212.609 23.1041 212.765 23.2465C212.922 23.3889 213 23.6025 213 23.8873C213 24.1721 212.922 24.3857 212.765 24.5281C212.609 24.6705 212.375 24.7417 212.062 24.7417H207.729V35.9503C207.729 36.2215 207.647 36.4317 207.484 36.5809C207.327 36.7301 207.096 36.8046 206.791 36.8046Z" fill="#111111"></path>
  <path d="M83.6584 36.5063C83.9568 36.5943 84.2024 36.5935 84.3951 36.5041C84.5833 36.406 84.728 36.2147 84.8291 35.9302L89.0141 24.1583C89.1176 23.8672 89.1235 23.635 89.0318 23.4617C88.9331 23.2864 88.7346 23.1548 88.4362 23.0669C88.1309 22.977 87.8853 22.9777 87.6995 23.0691C87.5137 23.1606 87.369 23.3519 87.2655 23.6431L83.0806 35.4149C82.9794 35.6995 82.9735 35.9317 83.0629 36.1115C83.1546 36.2848 83.3531 36.4164 83.6584 36.5063Z" fill="#111111"></path>
  <path d="M32.9944 54.4535C32.781 54.6112 32.6014 54.7418 32.4241 54.8755C30.4382 56.3746 28.4526 57.8742 26.4667 59.3733C26.2886 59.5076 26.1104 59.6417 25.9293 59.7717C25.6757 59.9536 25.5139 59.9573 25.2599 59.7707C24.7209 59.3745 24.1861 58.9728 23.6505 58.572C17.7589 54.1629 11.8644 49.7581 5.97971 45.3397C4.9661 44.5786 4.00244 43.7507 3.12077 42.8321C2.20787 41.8809 1.46942 40.8113 1.00048 39.5652C0.700145 38.7671 0.509589 37.941 0.400009 37.0945C0.310371 36.4017 0.286602 35.7057 0.282171 35.0078C0.272905 33.5775 0.267064 32.1468 0.23846 30.7169C0.213281 29.4525 0.16393 28.1885 0.115183 26.9248C0.0938312 26.3699 0.0438747 25.8162 0.0134583 25.2618C-0.03549 24.3713 0.05153 23.4929 0.234633 22.621C0.631054 20.7324 1.49742 19.0755 2.65929 17.5634C3.59776 16.3419 4.69336 15.2844 5.92714 14.3701C9.98139 11.3655 14.0334 8.35778 18.0857 5.3503C20.385 3.64369 22.683 1.93524 24.9819 0.228014C25.0573 0.172056 25.1324 0.115081 25.2122 0.0666521C25.3673 -0.0275607 25.5254 -0.0200319 25.6759 0.0774367C25.7444 0.121796 25.8062 0.177347 25.8682 0.231067C27.8133 1.91469 29.7579 3.59892 31.703 5.28274C31.8 5.36678 31.8992 5.44818 32.012 5.543C32.1137 5.47158 32.2094 5.40829 32.3008 5.33952C34.3915 3.76496 36.4816 2.18959 38.572 0.614429C38.7314 0.494374 38.8961 0.381237 39.0502 0.254467C39.321 0.0318564 39.5321 0.0467106 39.8052 0.261386C40.1835 0.558675 40.5751 0.838871 40.96 1.12741C44.2007 3.55476 47.4405 5.98334 50.682 8.40988C53.4817 10.506 56.2907 12.5894 59.0796 14.7002C60.09 15.4651 61.0554 16.2916 61.9317 17.2156C62.881 18.2166 63.6364 19.3445 64.0898 20.663C64.3591 21.4464 64.532 22.2518 64.6303 23.0761C64.6963 23.6296 64.707 24.1839 64.7145 24.7394C64.7376 26.4652 64.7491 28.1911 64.785 29.9166C64.8093 31.0983 64.8647 32.2793 64.9105 33.4603C64.9238 33.8028 64.9491 34.1446 64.9733 34.4867C65.1433 36.9095 64.4939 39.1157 63.2353 41.156C62.1454 42.9229 60.7464 44.4004 59.0862 45.6292C56.6527 47.4305 54.2202 49.2335 51.7889 51.038C48.1325 53.7517 44.4775 56.4674 40.8216 59.1818C40.5296 59.3987 40.2363 59.6138 39.9428 59.8287C39.8862 59.8702 39.8294 59.9125 39.768 59.9457C39.6215 60.0253 39.4733 60.0159 39.3351 59.9274C39.2567 59.8771 39.1866 59.8126 39.1157 59.7512C37.3393 58.2136 35.563 56.6759 33.7868 55.1382C33.53 54.9154 33.2725 54.6936 32.9944 54.4535ZM33.9288 16.8329C34.0656 16.9389 34.1568 17.0119 34.2503 17.0813C37.9333 19.8186 41.6203 22.5503 45.2981 25.2945C47.2919 26.7822 49.3135 28.2314 51.2704 29.7695C52.3227 30.5965 53.3875 31.4072 54.4468 32.2252C54.9075 32.5808 55.2852 33.0114 55.5871 33.5114C55.8536 33.9525 56.0109 34.4323 56.0611 34.9441C56.1354 35.7021 55.9428 36.3966 55.5337 37.0314C55.2572 37.4606 54.919 37.835 54.5225 38.1543C54.3122 38.3236 54.0987 38.489 53.8836 38.652C49.8974 41.6707 45.9117 44.6899 41.9239 47.7064C39.5369 49.5121 37.1465 51.3131 34.7581 53.1168C34.6773 53.1778 34.6022 53.2462 34.5275 53.3087C34.5512 53.3498 34.5585 53.375 34.575 53.3895C36.1268 54.7377 37.6795 56.0852 39.2323 57.4321C39.3476 57.532 39.4658 57.6282 39.5832 57.7259C39.5921 57.7332 39.6036 57.7383 39.6147 57.7412C39.6257 57.744 39.6378 57.743 39.6731 57.7448C39.7432 57.6966 39.831 57.64 39.9148 57.578C42.9111 55.3531 45.9068 53.1272 48.9034 50.9027C51.8811 48.692 54.8581 46.4806 57.8397 44.275C58.5683 43.736 59.2568 43.1528 59.8867 42.499C60.8479 41.5014 61.6585 40.3956 62.2638 39.1399C62.8083 38.0108 63.1471 36.828 63.1824 35.567C63.2138 34.4431 63.0309 33.3569 62.6125 32.3108C62.1206 31.0808 61.4158 29.9885 60.5557 28.9928C59.6442 27.9376 58.6149 27.0117 57.5094 26.1709C56.5751 25.4606 55.6347 24.7581 54.6966 24.0529C49.7337 20.3218 44.7492 16.6208 39.7269 12.972C39.6332 12.904 39.5367 12.8397 39.4243 12.762C37.5985 14.1096 35.7816 15.4557 33.9288 16.8329ZM25.3481 2.24738C25.2597 2.30863 25.1628 2.37191 25.07 2.4409C21.4993 5.09249 17.9297 7.7451 14.3589 10.3965C11.9754 12.1664 9.59444 13.9399 7.20443 15.7009C6.23614 16.4143 5.3454 17.2089 4.55759 18.1213C3.80766 18.9898 3.17677 19.9376 2.68829 20.9805C2.20848 22.0048 1.89948 23.0759 1.83462 24.2116C1.76573 25.4211 1.95387 26.5889 2.40488 27.7133C2.89335 28.931 3.59374 30.0131 4.44499 31.0002C5.41792 32.1283 6.52781 33.1036 7.71265 33.9953C8.68779 34.7292 9.66393 35.4618 10.6405 36.1939C15.5039 39.8409 20.3985 43.4444 25.335 46.9895C25.4293 47.0573 25.5268 47.1208 25.6265 47.1889C25.6863 47.1525 25.7383 47.1262 25.7844 47.0921C27.5011 45.8217 29.2175 44.5506 30.9329 43.2786C30.975 43.2474 31.0078 43.2037 31.0594 43.1508C30.9369 43.0572 30.8362 42.9782 30.7335 42.9019C27.0603 40.1718 23.3838 37.4467 19.7153 34.7105C17.7309 33.2304 15.7202 31.7864 13.771 30.2583C12.7086 29.4254 11.6354 28.6068 10.5672 27.7813C10.0199 27.3582 9.58013 26.8414 9.27456 26.2169C9.03304 25.7231 8.89667 25.1938 8.92729 24.6424C8.96395 23.9812 9.17707 23.3738 9.56603 22.8316C9.89195 22.377 10.2827 21.9916 10.7251 21.6562C13.952 19.2108 17.1774 16.7627 20.4066 14.3203C23.6825 11.8422 26.9624 9.36971 30.2402 6.89392C30.3217 6.83227 30.3971 6.76227 30.4927 6.68149C30.4031 6.5946 30.3316 6.51972 30.2547 6.45155C28.0655 4.51398 25.6171 2.41465 25.3481 2.24738ZM32.3975 17.9834C32.3073 18.0428 32.247 18.0784 32.191 18.1199C26.9229 22.0302 21.6551 25.941 16.3876 29.8519C16.3789 29.8584 16.3733 29.8707 16.3686 29.8812C16.3646 29.8908 16.364 29.9018 16.362 29.912C16.3757 29.9309 16.3856 29.9551 16.4035 29.9683C21.7248 33.9257 27.0464 37.8822 32.3685 41.8383C32.4344 41.8872 32.5028 41.9325 32.5705 41.9787C32.5798 41.985 32.5919 41.9881 32.603 41.9899C32.6144 41.9917 32.6263 41.9903 32.6549 41.9903C32.7007 41.9598 32.7605 41.9236 32.8165 41.8821C38.0852 37.9723 43.3535 34.0622 48.6217 30.1519C48.6308 30.1452 48.6383 30.134 48.6421 30.1234C48.6455 30.1142 48.6427 30.1026 48.6427 30.0554C43.2463 26.0452 37.8326 22.0207 32.3975 17.9834ZM38.3615 3.07698C38.2113 3.18158 38.1152 3.24364 38.0239 3.31242C36.5615 4.41407 35.0993 5.51594 33.6381 6.61902C29.7509 9.55386 25.8626 12.4873 21.9776 15.425C18.6636 17.9309 15.3528 20.4414 12.0421 22.9518C11.8366 23.1077 11.638 23.2737 11.4456 23.4459C11.2436 23.6266 11.0736 23.8364 10.937 24.0742C10.6876 24.5085 10.6773 24.9443 10.8989 25.3934C11.0915 25.7837 11.3761 26.093 11.7129 26.3545C12.677 27.1033 13.6447 27.8474 14.6119 28.5924C14.6752 28.641 14.7461 28.6797 14.8178 28.7261C22.6816 22.9005 30.527 17.073 38.3615 11.2603C38.3615 8.53604 38.3615 5.84375 38.3615 3.07698ZM26.6379 48.747C26.6379 48.8819 26.6379 48.9879 26.6379 49.0939C26.6379 51.5642 26.6379 54.0347 26.6379 56.505C26.6379 56.576 26.6345 56.6472 26.6401 56.7176C26.6444 56.7709 26.622 56.8383 26.7116 56.8764C26.8311 56.8253 26.9328 56.7272 27.0428 56.6444C30.8277 53.7895 34.6141 50.9365 38.396 48.0775C43.2266 44.426 48.0537 40.77 52.8809 37.1141C53.1238 36.9301 53.3585 36.7339 53.5859 36.5309C53.7791 36.3585 53.943 36.1577 54.0711 35.9288C54.3147 35.4943 54.3237 35.057 54.1074 34.6082C53.9237 34.2266 53.6483 33.9238 53.3216 33.6693C52.3402 32.9046 51.3538 32.1464 50.3684 31.387C50.315 31.3459 50.2526 31.317 50.1845 31.2765C42.3368 37.0994 34.4978 42.9156 26.6379 48.747ZM2.09729 30.9772C2.08722 31.1412 2.07674 31.2305 2.07714 31.3199C2.0848 32.7029 2.08883 34.086 2.10575 35.4689C2.11098 35.8938 2.13677 36.3199 2.18088 36.7425C2.22741 37.1881 2.30215 37.6305 2.41857 38.0655C2.77813 39.4091 3.46079 40.5598 4.42324 41.548C5.27027 42.4176 6.19625 43.1966 7.15306 43.9358C8.23959 44.7754 9.34949 45.584 10.4489 46.4067C14.3579 49.3314 18.2667 52.2563 22.1758 55.1811C22.965 55.7716 23.7542 56.3626 24.5456 56.9502C24.6042 56.9938 24.6558 57.0839 24.7545 57.0282C24.7918 56.6969 24.7884 49.1222 24.7481 48.8215C24.4937 48.6383 24.2276 48.4466 23.9611 48.2552C19.8742 45.3165 15.8145 42.3401 11.78 39.3288C9.90847 37.9319 8.03715 36.5343 6.17933 35.1189C4.68752 33.9824 3.3498 32.6832 2.24353 31.1524C2.21633 31.1145 2.1839 31.0804 2.09729 30.9772ZM62.9205 29.0156C62.9267 28.8429 62.935 28.7299 62.9342 28.6168C62.9247 27.2927 62.9169 25.9689 62.9014 24.6448C62.8967 24.2549 62.8838 23.864 62.849 23.476C62.8047 22.9821 62.7332 22.4915 62.6091 22.0097C62.2558 20.6386 61.5689 19.4635 60.5887 18.4571C59.7417 17.5874 58.8197 16.8027 57.8591 16.0688C56.2269 14.8218 54.5735 13.6032 52.929 12.3729C49.7244 9.97548 46.5198 7.57844 43.3154 5.181C42.4039 4.49913 41.4936 3.81543 40.5799 3.1362C40.4824 3.06376 40.3944 2.96405 40.247 2.93597C40.2032 3.08105 40.2188 3.21047 40.2188 3.33724C40.2177 5.78433 40.2182 8.23142 40.2182 10.6785C40.2182 10.7613 40.221 10.8441 40.219 10.9268C40.2167 11.0165 40.2486 11.0873 40.3207 11.1398C40.3872 11.1882 40.453 11.2373 40.5193 11.2857C41.4958 11.9979 42.4738 12.7081 43.4489 13.4223C48.5235 17.1389 53.5657 20.9001 58.5854 24.6918C60.1671 25.8867 61.5997 27.2366 62.77 28.8551C62.8008 28.898 62.8421 28.9328 62.9205 29.0156Z" fill="url(#paint0_linear_1351_617)"></path>
  <path d="M32.9944 54.4535C32.781 54.6112 32.6014 54.7418 32.4241 54.8755C30.4382 56.3746 28.4526 57.8742 26.4667 59.3733C26.2886 59.5076 26.1104 59.6417 25.9293 59.7717C25.6757 59.9536 25.5139 59.9573 25.2599 59.7707C24.7209 59.3745 24.1861 58.9728 23.6505 58.572C17.7589 54.1629 11.8644 49.7581 5.97971 45.3397C4.9661 44.5786 4.00244 43.7507 3.12077 42.8321C2.20787 41.8809 1.46942 40.8113 1.00048 39.5652C0.700145 38.7671 0.509589 37.941 0.400009 37.0945C0.310371 36.4017 0.286602 35.7057 0.282171 35.0078C0.272905 33.5775 0.267064 32.1468 0.23846 30.7169C0.213281 29.4525 0.16393 28.1885 0.115183 26.9248C0.0938312 26.3699 0.0438747 25.8162 0.0134583 25.2618C-0.03549 24.3713 0.05153 23.4929 0.234633 22.621C0.631054 20.7324 1.49742 19.0755 2.65929 17.5634C3.59776 16.3419 4.69336 15.2844 5.92714 14.3701C9.98139 11.3655 14.0334 8.35778 18.0857 5.3503C20.385 3.64369 22.683 1.93524 24.9819 0.228014C25.0573 0.172056 25.1324 0.115081 25.2122 0.0666521C25.3673 -0.0275607 25.5254 -0.0200319 25.6759 0.0774367C25.7444 0.121796 25.8062 0.177347 25.8682 0.231067C27.8133 1.91469 29.7579 3.59892 31.703 5.28274C31.8 5.36678 31.8992 5.44818 32.012 5.543C32.1137 5.47158 32.2094 5.40829 32.3008 5.33952C34.3915 3.76496 36.4816 2.18959 38.572 0.614429C38.7314 0.494374 38.8961 0.381237 39.0502 0.254467C39.321 0.0318564 39.5321 0.0467106 39.8052 0.261386C40.1835 0.558675 40.5751 0.838871 40.96 1.12741C44.2007 3.55476 47.4405 5.98334 50.682 8.40988C53.4817 10.506 56.2907 12.5894 59.0796 14.7002C60.09 15.4651 61.0554 16.2916 61.9317 17.2156C62.881 18.2166 63.6364 19.3445 64.0898 20.663C64.3591 21.4464 64.532 22.2518 64.6303 23.0761C64.6963 23.6296 64.707 24.1839 64.7145 24.7394C64.7376 26.4652 64.7491 28.1911 64.785 29.9166C64.8093 31.0983 64.8647 32.2793 64.9105 33.4603C64.9238 33.8028 64.9491 34.1446 64.9733 34.4867C65.1433 36.9095 64.4939 39.1157 63.2353 41.156C62.1454 42.9229 60.7464 44.4004 59.0862 45.6292C56.6527 47.4305 54.2202 49.2335 51.7889 51.038C48.1325 53.7517 44.4775 56.4674 40.8216 59.1818C40.5296 59.3987 40.2363 59.6138 39.9428 59.8287C39.8862 59.8702 39.8294 59.9125 39.768 59.9457C39.6215 60.0253 39.4733 60.0159 39.3351 59.9274C39.2567 59.8771 39.1866 59.8126 39.1157 59.7512C37.3393 58.2136 35.563 56.6759 33.7868 55.1382C33.53 54.9154 33.2725 54.6936 32.9944 54.4535ZM33.9288 16.8329C34.0656 16.9389 34.1568 17.0119 34.2503 17.0813C37.9333 19.8186 41.6203 22.5503 45.2981 25.2945C47.2919 26.7822 49.3135 28.2314 51.2704 29.7695C52.3227 30.5965 53.3875 31.4072 54.4468 32.2252C54.9075 32.5808 55.2852 33.0114 55.5871 33.5114C55.8536 33.9525 56.0109 34.4323 56.0611 34.9441C56.1354 35.7021 55.9428 36.3966 55.5337 37.0314C55.2572 37.4606 54.919 37.835 54.5225 38.1543C54.3122 38.3236 54.0987 38.489 53.8836 38.652C49.8974 41.6707 45.9117 44.6899 41.9239 47.7064C39.5369 49.5121 37.1465 51.3131 34.7581 53.1168C34.6773 53.1778 34.6022 53.2462 34.5275 53.3087C34.5512 53.3498 34.5585 53.375 34.575 53.3895C36.1268 54.7377 37.6795 56.0852 39.2323 57.4321C39.3476 57.532 39.4658 57.6282 39.5832 57.7259C39.5921 57.7332 39.6036 57.7383 39.6147 57.7412C39.6257 57.744 39.6378 57.743 39.6731 57.7448C39.7432 57.6966 39.831 57.64 39.9148 57.578C42.9111 55.3531 45.9068 53.1272 48.9034 50.9027C51.8811 48.692 54.8581 46.4806 57.8397 44.275C58.5683 43.736 59.2568 43.1528 59.8867 42.499C60.8479 41.5014 61.6585 40.3956 62.2638 39.1399C62.8083 38.0108 63.1471 36.828 63.1824 35.567C63.2138 34.4431 63.0309 33.3569 62.6125 32.3108C62.1206 31.0808 61.4158 29.9885 60.5557 28.9928C59.6442 27.9376 58.6149 27.0117 57.5094 26.1709C56.5751 25.4606 55.6347 24.7581 54.6966 24.0529C49.7337 20.3218 44.7492 16.6208 39.7269 12.972C39.6332 12.904 39.5367 12.8397 39.4243 12.762C37.5985 14.1096 35.7816 15.4557 33.9288 16.8329ZM25.3481 2.24738C25.2597 2.30863 25.1628 2.37191 25.07 2.4409C21.4993 5.09249 17.9297 7.7451 14.3589 10.3965C11.9754 12.1664 9.59444 13.9399 7.20443 15.7009C6.23614 16.4143 5.3454 17.2089 4.55759 18.1213C3.80766 18.9898 3.17677 19.9376 2.68829 20.9805C2.20848 22.0048 1.89948 23.0759 1.83462 24.2116C1.76573 25.4211 1.95387 26.5889 2.40488 27.7133C2.89335 28.931 3.59374 30.0131 4.44499 31.0002C5.41792 32.1283 6.52781 33.1036 7.71265 33.9953C8.68779 34.7292 9.66393 35.4618 10.6405 36.1939C15.5039 39.8409 20.3985 43.4444 25.335 46.9895C25.4293 47.0573 25.5268 47.1208 25.6265 47.1889C25.6863 47.1525 25.7383 47.1262 25.7844 47.0921C27.5011 45.8217 29.2175 44.5506 30.9329 43.2786C30.975 43.2474 31.0078 43.2037 31.0594 43.1508C30.9369 43.0572 30.8362 42.9782 30.7335 42.9019C27.0603 40.1718 23.3838 37.4467 19.7153 34.7105C17.7309 33.2304 15.7202 31.7864 13.771 30.2583C12.7086 29.4254 11.6354 28.6068 10.5672 27.7813C10.0199 27.3582 9.58013 26.8414 9.27456 26.2169C9.03304 25.7231 8.89667 25.1938 8.92729 24.6424C8.96395 23.9812 9.17707 23.3738 9.56603 22.8316C9.89195 22.377 10.2827 21.9916 10.7251 21.6562C13.952 19.2108 17.1774 16.7627 20.4066 14.3203C23.6825 11.8422 26.9624 9.36971 30.2402 6.89392C30.3217 6.83227 30.3971 6.76227 30.4927 6.68149C30.4031 6.5946 30.3316 6.51972 30.2547 6.45155C28.0655 4.51398 25.6171 2.41465 25.3481 2.24738ZM32.3975 17.9834C32.3073 18.0428 32.247 18.0784 32.191 18.1199C26.9229 22.0302 21.6551 25.941 16.3876 29.8519C16.3789 29.8584 16.3733 29.8707 16.3686 29.8812C16.3646 29.8908 16.364 29.9018 16.362 29.912C16.3757 29.9309 16.3856 29.9551 16.4035 29.9683C21.7248 33.9257 27.0464 37.8822 32.3685 41.8383C32.4344 41.8872 32.5028 41.9325 32.5705 41.9787C32.5798 41.985 32.5919 41.9881 32.603 41.9899C32.6144 41.9917 32.6263 41.9903 32.6549 41.9903C32.7007 41.9598 32.7605 41.9236 32.8165 41.8821C38.0852 37.9723 43.3535 34.0622 48.6217 30.1519C48.6308 30.1452 48.6383 30.134 48.6421 30.1234C48.6455 30.1142 48.6427 30.1026 48.6427 30.0554C43.2463 26.0452 37.8326 22.0207 32.3975 17.9834ZM38.3615 3.07698C38.2113 3.18158 38.1152 3.24364 38.0239 3.31242C36.5615 4.41407 35.0993 5.51594 33.6381 6.61902C29.7509 9.55386 25.8626 12.4873 21.9776 15.425C18.6636 17.9309 15.3528 20.4414 12.0421 22.9518C11.8366 23.1077 11.638 23.2737 11.4456 23.4459C11.2436 23.6266 11.0736 23.8364 10.937 24.0742C10.6876 24.5085 10.6773 24.9443 10.8989 25.3934C11.0915 25.7837 11.3761 26.093 11.7129 26.3545C12.677 27.1033 13.6447 27.8474 14.6119 28.5924C14.6752 28.641 14.7461 28.6797 14.8178 28.7261C22.6816 22.9005 30.527 17.073 38.3615 11.2603C38.3615 8.53604 38.3615 5.84375 38.3615 3.07698ZM26.6379 48.747C26.6379 48.8819 26.6379 48.9879 26.6379 49.0939C26.6379 51.5642 26.6379 54.0347 26.6379 56.505C26.6379 56.576 26.6345 56.6472 26.6401 56.7176C26.6444 56.7709 26.622 56.8383 26.7116 56.8764C26.8311 56.8253 26.9328 56.7272 27.0428 56.6444C30.8277 53.7895 34.6141 50.9365 38.396 48.0775C43.2266 44.426 48.0537 40.77 52.8809 37.1141C53.1238 36.9301 53.3585 36.7339 53.5859 36.5309C53.7791 36.3585 53.943 36.1577 54.0711 35.9288C54.3147 35.4943 54.3237 35.057 54.1074 34.6082C53.9237 34.2266 53.6483 33.9238 53.3216 33.6693C52.3402 32.9046 51.3538 32.1464 50.3684 31.387C50.315 31.3459 50.2526 31.317 50.1845 31.2765C42.3368 37.0994 34.4978 42.9156 26.6379 48.747ZM2.09729 30.9772C2.08722 31.1412 2.07674 31.2305 2.07714 31.3199C2.0848 32.7029 2.08883 34.086 2.10575 35.4689C2.11098 35.8938 2.13677 36.3199 2.18088 36.7425C2.22741 37.1881 2.30215 37.6305 2.41857 38.0655C2.77813 39.4091 3.46079 40.5598 4.42324 41.548C5.27027 42.4176 6.19625 43.1966 7.15306 43.9358C8.23959 44.7754 9.34949 45.584 10.4489 46.4067C14.3579 49.3314 18.2667 52.2563 22.1758 55.1811C22.965 55.7716 23.7542 56.3626 24.5456 56.9502C24.6042 56.9938 24.6558 57.0839 24.7545 57.0282C24.7918 56.6969 24.7884 49.1222 24.7481 48.8215C24.4937 48.6383 24.2276 48.4466 23.9611 48.2552C19.8742 45.3165 15.8145 42.3401 11.78 39.3288C9.90847 37.9319 8.03715 36.5343 6.17933 35.1189C4.68752 33.9824 3.3498 32.6832 2.24353 31.1524C2.21633 31.1145 2.1839 31.0804 2.09729 30.9772ZM62.9205 29.0156C62.9267 28.8429 62.935 28.7299 62.9342 28.6168C62.9247 27.2927 62.9169 25.9689 62.9014 24.6448C62.8967 24.2549 62.8838 23.864 62.849 23.476C62.8047 22.9821 62.7332 22.4915 62.6091 22.0097C62.2558 20.6386 61.5689 19.4635 60.5887 18.4571C59.7417 17.5874 58.8197 16.8027 57.8591 16.0688C56.2269 14.8218 54.5735 13.6032 52.929 12.3729C49.7244 9.97548 46.5198 7.57844 43.3154 5.181C42.4039 4.49913 41.4936 3.81543 40.5799 3.1362C40.4824 3.06376 40.3944 2.96405 40.247 2.93597C40.2032 3.08105 40.2188 3.21047 40.2188 3.33724C40.2177 5.78433 40.2182 8.23142 40.2182 10.6785C40.2182 10.7613 40.221 10.8441 40.219 10.9268C40.2167 11.0165 40.2486 11.0873 40.3207 11.1398C40.3872 11.1882 40.453 11.2373 40.5193 11.2857C41.4958 11.9979 42.4738 12.7081 43.4489 13.4223C48.5235 17.1389 53.5657 20.9001 58.5854 24.6918C60.1671 25.8867 61.5997 27.2366 62.77 28.8551C62.8008 28.898 62.8421 28.9328 62.9205 29.0156Z" fill="url(#paint1_radial_1351_617)"></path>
  <defs>
    <linearGradient id="paint0_linear_1351_617" x1="-6.00841" y1="-13.4694" x2="26.9047" y2="66.802" gradientUnits="userSpaceOnUse">
      <stop stop-color="#47A7FF"></stop>
      <stop offset="1" stop-color="#3757FF"></stop>
    </linearGradient>
    <radialGradient id="paint1_radial_1351_617" cx="0" cy="0" r="1" gradientUnits="userSpaceOnUse" gradientTransform="translate(74.7126 11.7447) rotate(128.453) scale(101.72 112.372)">
      <stop stop-color="#00C98D"></stop>
      <stop offset="1" stop-color="#00C98D" stop-opacity="0"></stop>
    </radialGradient>
  </defs>
</svg>
